<svg width="351" height="285" viewBox="0 0 351 285" fill="none" xmlns="http://www.w3.org/2000/svg">
<path d="M38.0344 212.746L37.9949 212.517L37.7945 212.4C22.4601 203.409 12.3664 191.764 9.3338 178.018C6.44331 164.916 10.2751 151.301 19.5758 138.163L19.7347 137.938L19.6302 137.684C9.26963 112.466 16.9672 84.3564 40.6753 69.0597C62.1278 55.2183 90.7452 55.7043 113.606 68.225L114.034 68.4596L114.279 68.0369C120.978 56.4587 133.906 47.3287 150.134 44.3261C168.615 40.9067 186.529 46.3306 197.586 57.1412L198.152 57.694L198.409 56.9461C204.069 40.4686 220.472 26.7673 242.109 22.7639C272.51 17.139 301.458 32.8099 306.916 57.5482C308.487 64.6701 307.948 71.7795 305.661 78.4318L305.519 78.8464L305.911 79.0419C324.711 88.4067 337.138 101.249 340.562 116.768C343.464 129.925 339.588 143.6 330.202 156.79L330.022 157.042L330.168 157.315C336.917 169.974 338.391 184.38 333.082 198.122C321.446 228.244 281.525 243.909 243.816 232.895C239.845 231.735 236.059 230.326 232.477 228.698L232.168 228.557L231.923 228.793C221.518 238.838 207.11 246.374 190.285 249.487C174.163 252.47 158.357 250.921 144.873 245.893L144.595 245.789L144.37 245.983C129.869 258.55 110.196 265.118 90.1328 262.312C62.5585 258.454 42.3895 238.03 38.0344 212.746Z" fill="#1A1B1F" stroke="#F3F3F3"/>
</svg>
