<svg width="230" height="256" viewBox="0 0 230 256" fill="none" xmlns="http://www.w3.org/2000/svg">
<g filter="url(#filter0_d)">
<path d="M79.9429 0.114746L66.4718 5.32357L76.2945 22.9034L82.7494 19.9734L79.9429 0.114746Z" fill="#1A1B1F"/>
<path d="M76.7188 21.6126L67.9064 5.841L79.1289 1.50162L81.6545 19.3722L76.7188 21.6126Z" stroke="#33D2D2" stroke-width="2"/>
</g>
<path d="M78.7086 21.4851C78.7086 21.4851 108.017 71.4058 120.191 103.393C132.365 135.38 141.055 185.3 141.055 185.3M78.7086 21.4851C84.4407 19.2852 90.4287 17.2379 96.6141 15.6216M78.7086 21.4851C69.2244 25.125 60.4697 29.7932 52.6646 34.1805M72.4687 191.857C23.2109 176.217 13.7843 90.6647 21.1093 70.3177C24.5332 60.8068 30.3079 53.2983 36.2167 47.1114M72.4687 191.857C81.7169 194.793 91.2461 196.569 99.5983 196.377M72.4687 191.857C72.4687 191.857 60.6189 177.416 48.2749 146.28C42.9859 132.939 31.0738 105.043 29.9058 76.5574C29.2308 60.0937 36.2167 47.1114 36.2167 47.1114M124.829 191.857C125.266 191.661 140.622 185.497 141.055 185.3M124.829 191.857C124.829 191.857 99.4446 135.789 87.5256 103.687C79.5268 82.1432 67.2608 43.2447 67.3145 26.0718M124.829 191.857C124.829 191.857 113.952 196.047 99.5983 196.377M141.055 185.3C147.138 182.538 152.769 179.678 157.926 176.572M96.6141 15.6216C96.6141 15.6216 132.421 62.2714 144.633 96.0966C160.498 140.04 157.926 176.572 157.926 176.572M96.6141 15.6216C101.562 14.3288 106.636 13.3117 111.807 12.7129M157.926 176.572C164.886 172.38 170.986 167.739 176.178 162.286M111.807 12.7129C111.807 12.7129 132.105 25.1343 149.5 53.4975C161.757 73.4828 172.652 94.1914 177.454 126.747C180.335 146.28 179.5 152.781 176.178 162.286M111.807 12.7129C117.316 12.0749 122.935 11.9119 128.627 12.3964M176.178 162.286C180.219 158.042 183.71 153.307 186.63 147.907M128.627 12.3964C136.831 13.0947 145.187 15.1382 153.585 19.0433C189.125 35.568 201.448 99.8886 193.465 130.273C191.732 136.872 189.447 142.698 186.63 147.907M128.627 12.3964C128.627 12.3964 143.447 19.0433 160.5 39.6147C178.738 61.6147 186.472 96.0448 189.307 113.996C192.409 133.634 186.63 147.907 186.63 147.907M52.6646 34.1805C52.6646 34.1805 46.6656 48.6637 52.6646 74.6583C55.5665 87.2323 61.8483 113.443 71.8618 138.683C80.5384 160.554 92.6928 182.425 99.5983 196.377M52.6646 34.1805C45.7095 38.0901 41.5083 41.5708 36.2167 47.1114" stroke="#33D2D2" stroke-width="2"/>
<path d="M79.0002 21.8183C101.246 13.2806 127.348 7.04137 153.877 19.3766C189.417 35.9013 201.74 100.222 193.757 130.607C186.084 159.811 167.607 173.897 140.041 186.222C115.96 196.988 97.9014 200.173 72.7603 192.19C23.5024 176.55 -1.26913 117.569 20.4008 70.6509C32.8914 43.6072 51.6272 32.3237 79.0002 21.8183Z" stroke="#33D2D2" stroke-width="2"/>
<g filter="url(#filter1_i)">
<path d="M144.204 78.9004L146.232 52.1398L112.779 59.9309C112.779 59.9309 120.497 68.7603 126.633 72.4643C132.769 76.1684 144.204 78.9004 144.204 78.9004Z" fill="#1A1B1F"/>
<path d="M104.331 83.6428L128.323 104.645L102.304 113.452L104.331 83.6428Z" fill="#1A1B1F"/>
<path d="M80.0016 90.7564L83.3807 70.0931C83.3807 70.0931 71.0639 70.3798 64.7957 73.8193C58.5275 77.2587 51.2793 87.7077 51.2793 87.7077L70.8781 95.16L80.0016 90.7564Z" fill="#1A1B1F"/>
</g>
<path d="M144.204 78.9004L146.232 52.1398L112.779 59.9309C112.779 59.9309 120.497 68.7603 126.633 72.4643C132.769 76.1684 144.204 78.9004 144.204 78.9004Z" stroke="#33D2D2" stroke-width="3"/>
<path d="M104.331 83.6428L128.323 104.645L102.304 113.452L104.331 83.6428Z" stroke="#33D2D2" stroke-width="3"/>
<path d="M80.0016 90.7564L83.3807 70.0931C83.3807 70.0931 71.0639 70.3798 64.7957 73.8193C58.5275 77.2587 51.2793 87.7077 51.2793 87.7077L70.8781 95.16L80.0016 90.7564Z" stroke="#33D2D2" stroke-width="3"/>
<g filter="url(#filter2_i)">
<path d="M138.39 148.805L164.137 113.452C164.137 113.452 136.496 126.171 117.531 130.965C98.5668 135.759 67.0143 138.003 67.0143 138.003L107.754 153.061L138.39 148.805Z" fill="#1A1B1F"/>
</g>
<path d="M138.39 148.805L164.137 113.452C164.137 113.452 136.496 126.171 117.531 130.965C98.5668 135.759 67.0143 138.003 67.0143 138.003L107.754 153.061L138.39 148.805Z" stroke="#33D2D2" stroke-width="3"/>
<path d="M79.6389 207.88L81.0642 222.031L108.755 237.687C108.755 237.687 114.994 215.879 110.577 203.148C107.185 193.37 102.474 188.881 95.019 181.777L94.9696 181.73C87.6902 174.794 81.58 173.524 73.5366 167.499C67.5359 163.005 58.6682 155.349 58.6682 155.349C58.6682 155.349 54.0138 141.143 47.3723 142.297C44.8675 142.733 41.647 145.428 41.647 145.428L45.2323 150.533L48.6308 159.935L39.4741 148.469C39.4741 148.469 36.1957 137.794 31.3237 138.727C28.7695 139.216 26.0582 142.841 26.0582 142.841C26.0582 142.841 23.5287 141.163 21.7396 141.293C17.2888 141.615 22.5053 152.753 22.5053 152.753L34.5203 175.883L52.2807 195.072L79.6389 207.88Z" fill="#F3F3F3"/>
<path d="M22.5053 152.753L34.5203 175.883L52.2807 195.072L79.6389 207.88L81.0642 222.031L108.755 237.687C108.755 237.687 114.994 215.879 110.577 203.148C107.178 193.349 102.454 188.861 94.9696 181.73C87.6902 174.794 81.58 173.524 73.5366 167.499C67.5359 163.005 58.6683 155.349 58.6683 155.349C58.6683 155.349 54.0138 141.143 47.3723 142.297C44.8675 142.733 41.647 145.428 41.647 145.428L45.2323 150.533L48.6308 159.935M22.5053 152.753L37.6931 171.564L54.8805 187.82M22.5053 152.753C22.5053 152.753 17.2888 141.615 21.7396 141.293C23.5287 141.163 26.0582 142.841 26.0582 142.841M26.0582 142.841L29.037 149.638L42.0855 166.865L53.5548 179.433M26.0582 142.841C26.0582 142.841 28.7695 139.216 31.3237 138.727C36.1957 137.794 39.4741 148.469 39.4741 148.469L48.6308 159.935M48.6308 159.935L62.2393 174.089" stroke="#1A1B1F" stroke-width="2"/>
<path d="M184.774 223.361L170.172 192.352L152.658 185.904L141.676 191.992C141.676 191.992 136.926 201.685 133.441 204.933C130.245 207.911 125.073 203.355 125.073 203.355L128.24 197.207C123.001 199.29 118.896 198.188 116.933 194.31L122.34 188.496C113.701 196.708 109.625 189.976 109.625 189.976L114.743 183.121C106.016 180.956 107.985 176.713 107.985 176.713L136.505 159.555L137.197 158.861L145.355 154.231L179.916 165.032L189.026 176.66L209.439 207.576L184.774 223.361Z" fill="#F3F3F3"/>
<path d="M159.765 170.086L142.286 175.396L128.24 197.207M128.24 197.207L125.073 203.355C125.073 203.355 130.245 207.911 133.441 204.933C136.926 201.685 141.676 191.992 141.676 191.992L152.658 185.904L170.172 192.352L184.774 223.361L209.439 207.576L189.026 176.66L179.916 165.032L145.355 154.231M128.24 197.207C123.001 199.29 118.896 198.188 116.933 194.31L125.081 185.548M125.081 185.548C114.561 198.128 109.625 189.976 109.625 189.976L119.862 176.266L137.197 158.861L145.355 154.231M125.081 185.548L135.443 172.376L145.805 167.205L155.308 164.049M145.355 154.231L107.985 176.713C107.985 176.713 106.016 180.956 114.743 183.121" stroke="#1A1B1F" stroke-width="2"/>
<defs>
<filter id="filter0_d" x="66.4718" y="0.114746" width="20.2776" height="22.7886" filterUnits="userSpaceOnUse" color-interpolation-filters="sRGB">
<feFlood flood-opacity="0" result="BackgroundImageFix"/>
<feColorMatrix in="SourceAlpha" type="matrix" values="0 0 0 0 0 0 0 0 0 0 0 0 0 0 0 0 0 0 127 0"/>
<feOffset dx="4"/>
<feColorMatrix type="matrix" values="0 0 0 0 0.2 0 0 0 0 0.823529 0 0 0 0 0.823529 0 0 0 1 0"/>
<feBlend mode="normal" in2="BackgroundImageFix" result="effect1_dropShadow"/>
<feBlend mode="normal" in="SourceGraphic" in2="effect1_dropShadow" result="shape"/>
</filter>
<filter id="filter1_i" x="48.9539" y="50.2154" width="98.928" height="65.3785" filterUnits="userSpaceOnUse" color-interpolation-filters="sRGB">
<feFlood flood-opacity="0" result="BackgroundImageFix"/>
<feBlend mode="normal" in="SourceGraphic" in2="BackgroundImageFix" result="shape"/>
<feColorMatrix in="SourceAlpha" type="matrix" values="0 0 0 0 0 0 0 0 0 0 0 0 0 0 0 0 0 0 127 0" result="hardAlpha"/>
<feOffset dy="-6"/>
<feComposite in2="hardAlpha" operator="arithmetic" k2="-1" k3="1"/>
<feColorMatrix type="matrix" values="0 0 0 0 0.2 0 0 0 0 0.823529 0 0 0 0 0.823529 0 0 0 1 0"/>
<feBlend mode="normal" in2="shape" result="effect1_innerShadow"/>
</filter>
<filter id="filter2_i" x="66.4943" y="109.684" width="102.243" height="44.914" filterUnits="userSpaceOnUse" color-interpolation-filters="sRGB">
<feFlood flood-opacity="0" result="BackgroundImageFix"/>
<feBlend mode="normal" in="SourceGraphic" in2="BackgroundImageFix" result="shape"/>
<feColorMatrix in="SourceAlpha" type="matrix" values="0 0 0 0 0 0 0 0 0 0 0 0 0 0 0 0 0 0 127 0" result="hardAlpha"/>
<feOffset dy="-6"/>
<feComposite in2="hardAlpha" operator="arithmetic" k2="-1" k3="1"/>
<feColorMatrix type="matrix" values="0 0 0 0 0.2 0 0 0 0 0.823529 0 0 0 0 0.823529 0 0 0 1 0"/>
<feBlend mode="normal" in2="shape" result="effect1_innerShadow"/>
</filter>
</defs>
</svg>
