<svg width="213" height="187" viewBox="0 0 213 187" fill="none" xmlns="http://www.w3.org/2000/svg">
<path d="M10.3746 20.8963L10.1943 20.483L9.76516 20.3446C7.99901 19.7746 5.69812 20.0254 4.06493 20.7667C3.25001 21.1366 2.4513 21.6959 2.02611 22.4933C1.55137 23.3835 1.63878 24.3862 2.28117 25.3083C4.90524 29.075 9.20816 37.2873 14.215 47.5718C19.2082 57.828 24.8654 70.0686 30.1907 81.835C35.5156 93.6003 40.5063 104.886 44.166 113.231C45.9957 117.403 47.4926 120.84 48.532 123.234C49.0517 124.431 49.457 125.367 49.7323 126.003C49.87 126.322 49.9752 126.565 50.0459 126.729L50.126 126.915L50.1462 126.961L50.1512 126.973L50.1525 126.976C50.1528 126.977 50.1529 126.977 51.0713 126.581L50.1529 126.977L50.6517 128.135L51.6655 127.386L58.7725 122.135L59.444 121.639L59.0758 120.89L58.1783 121.331C59.0758 120.89 59.0757 120.89 59.0756 120.889L59.0749 120.888L59.072 120.882L59.0608 120.859L59.016 120.768L58.8399 120.41L58.1585 119.023C57.5645 117.813 56.6998 116.053 55.6169 113.847C53.451 109.435 50.4125 103.243 46.9217 96.1225C39.94 81.8808 31.1496 63.924 23.9141 49.0623C16.9781 34.8157 11.4885 23.4492 10.3746 20.8963Z" stroke="#F3F3F3" stroke-width="2"/>
<path d="M172.454 16.8905C172.454 16.8905 60.8436 20.7651 33.8898 57.5L29.015 47.5C22.0862 33.2682 16.5828 21.8739 15.458 19.2962C123.001 -9.55824 172.454 16.8905 172.454 16.8905Z" fill="#33D2D2"/>
<path d="M55.5617 107.389L52.7058 108.307L53.1603 109.72L54.5593 110.216L205.986 163.897L209.92 165.291L209.988 161.118L206.988 161.069C209.988 161.118 209.988 161.118 209.988 161.117L209.988 161.116L209.988 161.111L209.988 161.096L209.989 161.037L209.99 160.964C209.991 160.922 209.991 160.873 209.992 160.815C209.994 160.622 209.996 160.339 209.998 159.974C210.001 159.245 210.002 158.19 209.989 156.877C209.965 154.253 209.889 150.594 209.687 146.448C209.286 138.215 208.375 127.84 206.285 119.849C204.332 112.382 200.143 106.849 196.524 102.069C195.93 101.285 195.352 100.522 194.802 99.7732C190.824 94.364 188.033 89.5213 188.742 82.4499C188.988 79.9896 189.845 78.3685 190.979 76.2236C191.074 76.0455 191.17 75.8638 191.267 75.6778C192.57 73.1992 193.964 70.2516 193.964 65.7263C193.964 55.6043 188.499 46.7517 180.404 39.5753C172.304 32.3935 161.313 26.6393 149.518 22.6214C137.705 18.5975 124.919 16.2578 113.114 16.0201C101.369 15.7836 90.2917 17.6234 82.1237 22.2556C73.9658 26.8822 67.2472 31.4909 61.7937 37.2908C56.3078 43.1251 52.2144 50.043 49.1161 59.1518C45.8755 68.6788 46.9093 81.1451 48.5662 90.832C49.4077 95.7522 50.4384 100.106 51.2582 103.229C51.6686 104.792 52.0272 106.052 52.2848 106.925C52.4135 107.362 52.5171 107.702 52.5893 107.936C52.6254 108.053 52.6537 108.143 52.6734 108.205L52.6963 108.278L52.7028 108.298L52.7047 108.304L52.7054 108.306C52.7056 108.307 52.7058 108.307 55.5617 107.389Z" fill="#1A1B1F" stroke="#1A1B1F" stroke-width="6"/>
<path d="M55.5617 107.389C55.5617 107.389 45.9943 77.6457 51.9563 60.1179C57.914 42.6027 67.5107 33.9918 83.6036 24.8652C113.649 7.82602 190.964 29.8732 190.964 65.7263C190.964 73.3377 186.427 75.4555 185.757 82.1509C184.11 98.5896 199.202 104.625 203.383 120.608C207.397 135.956 206.988 161.069 206.988 161.069" stroke="#F3F3F3" stroke-width="2"/>
<path d="M107.329 151.496C107.329 151.496 101.095 149.167 97.4635 150.509C95.1385 151.369 94.7218 153.52 92.3663 154.291C87.928 155.745 85.6719 150.934 81.0209 150.509C73.254 149.801 61.9474 156.429 61.9474 156.429" stroke="#F3F3F3" stroke-width="2"/>
<path d="M108.151 171.227C108.151 171.227 83.5504 184.836 70.662 177.475C54.9316 168.491 63.9697 133.738 62.7695 131.765C59.1891 125.878 52.2308 124.977 51.5886 118.117C51.0336 112.191 57.6723 104.141 57.6723 104.141C55.2059 94.7688 56.1925 87.8629 60.3031 80.957C60.3031 80.957 61.8606 61.6923 70.662 55.6354C83.2938 46.9425 99.2722 55.6354 108.151 67.3096C135.488 103.253 127.554 171.227 111.275 182.901C104.821 187.53 93.5173 187.341 88.9133 178.574" stroke="#F3F3F3" stroke-width="2"/>
<ellipse rx="7.56361" ry="12.9897" transform="matrix(-1 0 0 1 92.2019 94.6044)" fill="#F3F3F3"/>
<ellipse rx="7.56361" ry="12.9897" transform="matrix(-1 0 0 1 66.5514 94.6044)" fill="#F3F3F3"/>
<path d="M70.9909 117.624C70.9909 121.024 68.7104 125.697 70.0043 127.654C70.9571 129.096 73.4634 129.956 74.7728 129.956C76.2253 129.956 78.3826 129.39 79.3766 127.654C80.4956 125.7 80.3633 122.394 80.3633 119.268C80.3633 113.366 77.8603 108.581 74.7728 108.581C71.6852 108.581 70.9909 111.721 70.9909 117.624Z" fill="#F3F3F3"/>
<path d="M96.6414 131.272C105.087 131.272 111.933 124.425 111.933 115.98" stroke="#F3F3F3" stroke-width="2"/>
<path d="M105.62 161.833C104.748 162.072 103.906 161.699 103.259 161.234C102.584 160.749 101.92 160.024 101.302 159.162C100.062 157.431 98.8906 154.98 98.1434 152.254C97.3558 149.38 97.7765 146.681 98.6326 144.633C99.0603 143.611 99.6047 142.731 100.184 142.059C100.74 141.415 101.414 140.863 102.132 140.666C103.067 140.41 103.834 140.857 104.359 141.421C104.865 141.965 105.284 142.747 105.652 143.609C106.396 145.348 107.085 147.801 107.8 150.41C108.555 153.165 108.637 155.745 108.277 157.739C108.097 158.734 107.801 159.621 107.391 160.318C106.991 160.999 106.412 161.616 105.62 161.833Z" stroke="#F3F3F3" stroke-width="2"/>
<path d="M96.7083 164.332C95.5062 164.413 93.6935 164.011 92.1728 162.076C90.6896 160.19 89.5552 156.936 89.3773 151.461C89.192 148.672 89.3961 146.082 89.9031 144.135C90.1558 143.165 90.4981 142.299 90.9474 141.643C91.3886 140.999 92.0412 140.411 92.931 140.351C93.8207 140.291 94.5459 140.787 95.0691 141.367C95.6019 141.957 96.0567 142.77 96.4365 143.697C97.2004 145.563 97.749 148.11 97.9363 150.905C98.0154 152.086 98.1321 153.333 98.2485 154.576C98.2645 154.747 98.2804 154.917 98.2963 155.088C98.4269 156.49 98.5506 157.877 98.6051 159.102C98.6589 160.31 98.6505 161.441 98.4858 162.304C98.4043 162.731 98.2689 163.181 98.0171 163.553C97.7422 163.958 97.3057 164.292 96.7083 164.332Z" stroke="#F3F3F3" stroke-width="2"/>
<path d="M87.5004 164.004C86.9716 164.039 86.5033 163.832 86.1421 163.594C85.7724 163.35 85.4245 163.013 85.104 162.636C84.4612 161.879 83.8256 160.838 83.2562 159.658C82.1175 157.298 81.1607 154.21 80.9683 151.34C80.781 148.544 80.9849 145.946 81.4931 143.996C81.7458 143.026 82.0881 142.159 82.5373 141.503C82.9785 140.859 83.6311 140.271 84.5209 140.212C85.4107 140.152 86.1358 140.648 86.659 141.227C87.1918 141.817 87.6466 142.63 88.0265 143.558C88.7903 145.423 89.3389 147.971 89.5262 150.766C89.7077 153.475 89.8916 156.541 89.7964 158.952C89.7492 160.147 89.6315 161.258 89.3784 162.104C89.2524 162.525 89.0725 162.952 88.7956 163.297C88.5025 163.662 88.0707 163.965 87.5004 164.004Z" stroke="#F3F3F3" stroke-width="2"/>
<path d="M78.2924 162.03C77.7929 162.064 77.343 161.891 76.9824 161.673C76.6179 161.453 76.2793 161.149 75.972 160.809C75.3567 160.129 74.7692 159.201 74.2647 158.17C73.2605 156.118 72.4858 153.449 72.5563 151.103C72.5626 150.896 72.5681 150.683 72.5737 150.465C72.6207 148.646 72.6764 146.486 73.2318 144.737C73.5507 143.732 74.0587 142.772 74.898 142.063C75.7474 141.347 76.8453 140.965 78.1953 140.959C78.572 140.94 78.95 141.009 79.2981 141.203C79.652 141.399 79.9071 141.687 80.0912 141.992C80.4383 142.569 80.603 143.331 80.7062 144.111C80.833 145.069 80.8924 146.324 80.9604 147.759C81.0028 148.655 81.0485 149.62 81.116 150.627C81.3002 153.376 81.2847 156.014 80.9763 158.009C80.8234 158.998 80.5879 159.904 80.2211 160.598C79.859 161.283 79.2488 161.966 78.2924 162.03Z" stroke="#F3F3F3" stroke-width="2"/>
<path d="M71.5164 162.682C70.6942 162.898 69.9126 162.616 69.2836 162.187C68.652 161.757 68.0621 161.109 67.53 160.347C66.4611 158.815 65.497 156.633 64.8496 154.164C64.2023 151.695 63.972 149.321 64.1518 147.461C64.2413 146.536 64.4376 145.682 64.7768 144.997C65.1147 144.315 65.6573 143.686 66.4795 143.47C67.3018 143.255 68.0834 143.537 68.7124 143.965C69.3439 144.396 69.9338 145.043 70.4659 145.806C71.5348 147.338 72.499 149.52 73.1463 151.989C73.7936 154.458 74.024 156.832 73.8441 158.691C73.7546 159.617 73.5583 160.471 73.2191 161.155C72.8813 161.837 72.3387 162.467 71.5164 162.682Z" stroke="#F3F3F3" stroke-width="2"/>
<path d="M61.1253 147.056C62.8821 146.596 63.4704 147.326 64.8522 152.596C65.7786 156.13 67.4303 163.441 62.1119 162.677" stroke="#F3F3F3" stroke-width="2"/>
</svg>
