<svg width="20" height="16" viewBox="0 0 20 16" fill="none" xmlns="http://www.w3.org/2000/svg">
<path fill-rule="evenodd" clip-rule="evenodd" d="M17.2116 7.39893H0V8.3191H17.2116C16.7335 8.52747 16.2158 8.77556 15.6838 9.06704C13.5431 10.24 11.099 12.156 10.1622 15.0817L11.0511 15.359C11.8821 12.7637 14.0785 10.9991 16.1362 9.87157C17.1584 9.31152 18.1285 8.91866 18.8432 8.66597C19.2001 8.53977 19.4922 8.44895 19.6937 8.38999C19.7944 8.36052 19.8725 8.33904 19.9246 8.32511C19.9506 8.31814 19.9702 8.31307 19.9829 8.30983L19.9967 8.30633L19.9996 8.30561C19.9996 8.30561 20 8.30551 19.9998 8.30483V7.41319C20 7.41251 20 7.41252 20 7.41252L19.9967 7.41169L19.9829 7.40819C19.9702 7.40495 19.9506 7.39988 19.9246 7.39291C19.8725 7.37898 19.7944 7.3575 19.6937 7.32803C19.4922 7.26907 19.2001 7.17825 18.8432 7.05206C18.1285 6.79936 17.1584 6.4065 16.1362 5.84645C14.0785 4.71895 11.8821 2.9543 11.0511 0.359009L10.1622 0.636308C11.099 3.56203 13.5431 5.47806 15.6838 6.65098C16.2158 6.94246 16.7335 7.19055 17.2116 7.39893Z" fill="#1A1B1F" stroke="#1A1B1F" stroke-width="0.5"/>
</svg>
