<svg width="32" height="30" viewBox="0 0 32 30" fill="none" xmlns="http://www.w3.org/2000/svg">
<g filter="url(#filter0_d)">
<path fill-rule="evenodd" clip-rule="evenodd" d="M28 14C28 21.732 21.732 28 14 28C6.26801 28 0 21.732 0 14C0 6.26801 6.26801 0 14 0C21.732 0 28 6.26801 28 14Z" fill="#F3F3F3"/>
</g>
<path d="M26 14C26 20.6274 20.6274 26 14 26C7.37258 26 2 20.6274 2 14C2 7.37258 7.37258 2 14 2C20.6274 2 26 7.37258 26 14Z" fill="#1A1B1F"/>
<path fill-rule="evenodd" clip-rule="evenodd" d="M5.72578 13.5067H6.80002C7.35231 13.5067 7.80002 13.9544 7.80002 14.5067C7.80002 14.962 7.49563 15.3463 7.07921 15.4672C7.23432 16.0915 7.5055 16.9035 7.9699 17.7098C8.89586 19.3174 10.5997 20.9437 13.9077 20.9912C17.1985 21.0383 18.928 19.4217 19.8871 17.7836C20.3718 16.9557 20.6597 16.1155 20.8263 15.4706C20.4037 15.3538 20.0934 14.9664 20.0934 14.5067C20.0934 13.9544 20.5411 13.5067 21.0934 13.5067H22.2042L23.1709 13.8611C23.6895 14.0512 23.9557 14.6257 23.7656 15.1442C23.6145 15.5562 23.2209 15.8089 22.8055 15.8C22.7945 15.8452 22.7831 15.8914 22.771 15.9384C22.574 16.7101 22.2248 17.7491 21.613 18.7941C20.3654 20.9249 18.0282 23.0504 13.879 22.991C9.747 22.9317 7.45085 20.8158 6.23681 18.708C5.64184 17.6749 5.30971 16.6545 5.12547 15.8976C5.1152 15.8554 5.10538 15.8139 5.09598 15.7733C4.69028 15.7635 4.31471 15.5055 4.17465 15.0993C3.99461 14.5772 4.27192 14.008 4.79403 13.8279L5.72578 13.5067Z" fill="#F3F3F3"/>
<path d="M17.5 13.5C14.6839 13.5 15 6.5 15 6.5C15 6.5 17.7627 6.17512 19 7C20.5 8 21 10 21 10C21 10 20 13.5 17.5 13.5Z" fill="#F3F3F3"/>
<path fill-rule="evenodd" clip-rule="evenodd" d="M13.9894 7.0743L7.50385 3.36826L8.49612 1.63177L15.2228 5.4756C15.2732 5.47177 15.3284 5.46789 15.388 5.46413C15.6872 5.44524 16.102 5.42911 16.5619 5.44102C17.0188 5.45286 17.5403 5.49279 18.0468 5.59286C18.5421 5.69071 19.091 5.85883 19.5547 6.16797C20.5081 6.80357 21.1057 7.72537 21.4569 8.4278C21.6364 8.78684 21.762 9.10952 21.8434 9.34478C21.8444 9.34764 21.8454 9.35048 21.8464 9.35331L27.0369 12.6564L25.9631 14.3437L21.4783 11.4897C21.3553 11.7411 21.2061 12.0148 21.0287 12.2908C20.4067 13.2582 19.2697 14.5 17.5 14.5C16.2895 14.5 15.5076 13.7167 15.0482 12.8937C14.5958 12.0835 14.3489 11.0706 14.2059 10.1541C14.0602 9.21996 14.0098 8.29725 13.9948 7.61565C13.9904 7.41373 13.9891 7.23138 13.9894 7.0743ZM16.0204 8.25299C16.0477 8.74742 16.0967 9.29923 16.182 9.84589C16.312 10.6794 16.514 11.4165 16.7945 11.9188C17.0678 12.4083 17.3024 12.5 17.5 12.5C18.2302 12.5 18.8433 11.9918 19.3463 11.2093C19.5169 10.9439 19.6558 10.6746 19.7639 10.4367L16.0204 8.25299Z" fill="#F3F3F3"/>
<path d="M11.56 10.3333C11.56 12.1743 10.9869 13.6667 10.28 13.6667C9.57308 13.6667 9 12.1743 9 10.3333C9 8.49238 9.57308 7 10.28 7C10.9869 7 11.56 8.49238 11.56 10.3333Z" fill="#F3F3F3"/>
<defs>
<filter id="filter0_d" x="0" y="0" width="30" height="30" filterUnits="userSpaceOnUse" color-interpolation-filters="sRGB">
<feFlood flood-opacity="0" result="BackgroundImageFix"/>
<feColorMatrix in="SourceAlpha" type="matrix" values="0 0 0 0 0 0 0 0 0 0 0 0 0 0 0 0 0 0 127 0"/>
<feOffset dx="2" dy="2"/>
<feColorMatrix type="matrix" values="0 0 0 0 0.94902 0 0 0 0 0.94902 0 0 0 0 0.94902 0 0 0 1 0"/>
<feBlend mode="normal" in2="BackgroundImageFix" result="effect1_dropShadow"/>
<feBlend mode="normal" in="SourceGraphic" in2="effect1_dropShadow" result="shape"/>
</filter>
</defs>
</svg>
