<svg width="32" height="30" viewBox="0 0 32 30" fill="none" xmlns="http://www.w3.org/2000/svg">
<g filter="url(#filter0_d)">
<path fill-rule="evenodd" clip-rule="evenodd" d="M28 14C28 21.732 21.732 28 14 28C6.26801 28 0 21.732 0 14C0 6.26801 6.26801 0 14 0C21.732 0 28 6.26801 28 14Z" fill="#F3F3F3"/>
</g>
<path d="M26 14C26 20.6274 20.6274 26 14 26C7.37258 26 2 20.6274 2 14C2 7.37258 7.37258 2 14 2C20.6274 2 26 7.37258 26 14Z" fill="#1A1B1F"/>
<path d="M12.24 9.38668C12.24 11.2276 11.6669 12.72 10.96 12.72C10.2531 12.72 9.67999 11.2276 9.67999 9.38668C9.67999 7.54573 10.2531 6.05334 10.96 6.05334C11.6669 6.05334 12.24 7.54573 12.24 9.38668Z" fill="#F3F3F3"/>
<path d="M18.48 9.38668C18.48 11.2276 17.9069 12.72 17.2 12.72C16.4931 12.72 15.92 11.2276 15.92 9.38668C15.92 7.54573 16.4931 6.05334 17.2 6.05334C17.9069 6.05334 18.48 7.54573 18.48 9.38668Z" fill="#F3F3F3"/>
<path fill-rule="evenodd" clip-rule="evenodd" d="M5.72578 13.5067H6.80002C7.35231 13.5067 7.80002 13.9544 7.80002 14.5067C7.80002 14.962 7.49563 15.3463 7.07921 15.4672C7.23432 16.0915 7.5055 16.9035 7.9699 17.7098C8.89586 19.3174 10.5997 20.9437 13.9077 20.9912C17.1985 21.0383 18.928 19.4217 19.8871 17.7836C20.3718 16.9557 20.6597 16.1155 20.8263 15.4706C20.4037 15.3538 20.0934 14.9664 20.0934 14.5067C20.0934 13.9544 20.5411 13.5067 21.0934 13.5067H22.2042L23.1709 13.8611C23.6895 14.0512 23.9557 14.6257 23.7656 15.1442C23.6145 15.5562 23.2209 15.8089 22.8055 15.8C22.7945 15.8452 22.7831 15.8914 22.771 15.9384C22.574 16.7101 22.2248 17.7491 21.613 18.7941C20.3654 20.9249 18.0282 23.0504 13.879 22.991C9.747 22.9317 7.45085 20.8158 6.23681 18.708C5.64184 17.6749 5.30971 16.6545 5.12547 15.8976C5.1152 15.8554 5.10538 15.8139 5.09598 15.7733C4.69028 15.7635 4.31471 15.5055 4.17465 15.0993C3.99461 14.5772 4.27192 14.008 4.79403 13.8279L5.72578 13.5067Z" fill="#F3F3F3"/>
<defs>
<filter id="filter0_d" x="0" y="0" width="30" height="30" filterUnits="userSpaceOnUse" color-interpolation-filters="sRGB">
<feFlood flood-opacity="0" result="BackgroundImageFix"/>
<feColorMatrix in="SourceAlpha" type="matrix" values="0 0 0 0 0 0 0 0 0 0 0 0 0 0 0 0 0 0 127 0"/>
<feOffset dx="2" dy="2"/>
<feColorMatrix type="matrix" values="0 0 0 0 0.94902 0 0 0 0 0.94902 0 0 0 0 0.94902 0 0 0 1 0"/>
<feBlend mode="normal" in2="BackgroundImageFix" result="effect1_dropShadow"/>
<feBlend mode="normal" in="SourceGraphic" in2="effect1_dropShadow" result="shape"/>
</filter>
</defs>
</svg>
