<svg width="178" height="136" viewBox="0 0 178 136" fill="none" xmlns="http://www.w3.org/2000/svg">
<g clip-path="url(#clip0)">
<path d="M19.7367 110.48C10.2387 101.389 3.72259 90.3877 1.32494 78.3478C1.24678 77.9554 1.17336 77.5625 1.10463 77.1693C7.40402 75.3452 15.5304 80.5357 19.9296 89.509C23.8467 97.499 23.583 105.988 19.7367 110.48Z" fill="#33D2D2"/>
<path d="M173.516 88.6901C172.298 91.6163 170.829 94.4565 169.128 97.1957C163.638 106.035 155.734 113.823 146.068 120.057C139.834 115.48 136.652 105.719 138.713 95.3962C141.316 82.3602 151.294 73.3634 161 75.3013C167.088 76.5167 171.623 81.7447 173.516 88.6901Z" fill="#33D2D2"/>
<path fill-rule="evenodd" clip-rule="evenodd" d="M150.5 21.504C134.828 9.48869 113.091 2 89 2C55.1297 2 25.9964 16.7862 11.7266 38.0703C3.86909 49.7901 0.539449 64.1642 3.28623 77.9572C9.53715 109.346 45.189 134 89 134C123.818 134 153.619 118.378 167.428 96.1405C170.955 90.4618 173.44 84.3536 174.714 77.9572C175.36 74.7103 175.696 71.3854 175.696 68C175.696 49.9742 166.171 33.5177 150.5 21.504ZM176.675 78.3478C177.347 74.9737 177.696 71.5181 177.696 68C177.696 30.4446 137.985 0 89 0C54.6024 0 24.778 15.012 10.0654 36.9565C1.93908 49.0773 -1.53506 63.9872 1.32475 78.3478C7.82563 110.992 44.6035 136 89 136C124.355 136 154.878 120.141 169.127 97.1957C172.772 91.3276 175.351 84.9961 176.675 78.3478Z" fill="#F3F3F3"/>
<path d="M8.3388 35.8428L6.81294 38.1187L9.44565 38.8782L10 36.9565C9.44565 38.8782 9.44643 38.8784 9.44748 38.8787L9.45099 38.8797L9.463 38.8831L9.50693 38.8957C9.54503 38.9065 9.6007 38.9222 9.67368 38.9426C9.81962 38.9833 10.0348 39.0428 10.3169 39.1189C10.8811 39.2711 11.7132 39.4903 12.7955 39.7608C14.96 40.3019 18.1255 41.0488 22.1494 41.8777C30.1963 43.5353 41.6823 45.5223 55.4662 46.8468C82.1671 49.4126 117.577 49.5012 153.336 39.8311C149.784 54.7022 152.982 68.8651 157.165 79.4524C159.425 85.1697 161.989 89.8914 163.991 93.187C164.993 94.8361 165.855 96.1318 166.472 97.0204C166.78 97.4648 167.027 97.8077 167.199 98.0424C167.285 98.1598 167.352 98.2501 167.399 98.3126C167.423 98.3438 167.441 98.3681 167.454 98.3853L167.47 98.4058L167.475 98.4121L167.476 98.4142C167.477 98.415 167.477 98.4157 169.062 97.1957L167.477 98.4157L169.238 100.703L170.761 98.2508C174.523 92.1934 177.197 85.6385 178.571 78.7384C179.269 75.2372 179.63 71.6507 179.63 68C179.63 48.4705 169.3 30.9269 152.869 18.3295C136.439 5.73363 113.829 -2 88.9346 -2C54.0096 -2 23.4943 13.2377 8.3388 35.8428Z" fill="#F3F3F3" stroke="#1A1B1F" stroke-width="4"/>
<path d="M36.9346 60C36.9346 60 46.1066 52.5899 52.7967 54.2396C57.0992 55.3005 59.9346 60 59.9346 60" stroke="#F3F3F3" stroke-width="2"/>
<path d="M117.935 62C117.935 62 107.167 54.5899 99.3139 56.2396C94.2631 57.3005 90.9346 62 90.9346 62" stroke="#F3F3F3" stroke-width="2"/>
<path d="M80.2982 90.9735C60.8013 94.0133 85.9793 99.9743 86.9971 94.86" stroke="#F3F3F3" stroke-width="2"/>
<path d="M30.4346 95.5C30.4346 95.5 45.4346 116.5 81.9346 118C118.435 119.5 131.935 106.5 131.935 106.5M30.4346 95.5L26.9346 98.5M30.4346 95.5L34.4346 92.5M131.935 106.5L128.935 103.5M131.935 106.5L134.935 109" stroke="#F3F3F3" stroke-width="2"/>
<path d="M50.4346 76.5C50.4346 81.7467 48.7557 86 46.6846 86C44.6135 86 42.9346 81.7467 42.9346 76.5C42.9346 75.4517 43.0016 74.443 43.1254 73.5C43.2985 72.1812 43.5827 70.9908 43.9498 70C44.6339 68.1535 45.6061 67 46.6846 67C48.7557 67 50.4346 71.2533 50.4346 76.5Z" fill="#F3F3F3"/>
<path d="M56.9346 76.5C56.9346 79.8017 56.1296 82.7424 54.8804 84.8243C53.6193 86.9262 52.0164 88 50.4346 88C48.8528 88 47.2499 86.9262 45.9888 84.8243C44.7396 82.7424 43.9346 79.8017 43.9346 76.5C43.9346 73.1983 44.7396 70.2576 45.9888 68.1757C47.2499 66.0738 48.8528 65 50.4346 65C52.0164 65 53.6193 66.0738 54.8804 68.1757C56.1296 70.2576 56.9346 73.1983 56.9346 76.5Z" stroke="#F3F3F3" stroke-width="2"/>
<path d="M103.435 76.5C103.435 81.7467 101.756 86 99.6846 86C97.6135 86 95.9346 81.7467 95.9346 76.5C95.9346 75.4517 96.0016 74.443 96.1254 73.5C96.2985 72.1812 96.5827 70.9908 96.9498 70C97.6339 68.1535 98.6061 67 99.6846 67C101.756 67 103.435 71.2533 103.435 76.5Z" fill="#F3F3F3"/>
<path d="M109.935 76.5C109.935 79.8017 109.13 82.7424 107.88 84.8243C106.619 86.9262 105.016 88 103.435 88C101.853 88 100.25 86.9262 98.9888 84.8243C97.7396 82.7424 96.9346 79.8017 96.9346 76.5C96.9346 73.1983 97.7396 70.2576 98.9888 68.1757C100.25 66.0738 101.853 65 103.435 65C105.016 65 106.619 66.0738 107.88 68.1757C109.13 70.2576 109.935 73.1983 109.935 76.5Z" stroke="#F3F3F3" stroke-width="2"/>
</g>
<defs>
<clipPath id="clip0">
<rect width="177.36" height="136" fill="white" transform="translate(0.33606)"/>
</clipPath>
</defs>
</svg>
