<svg width="253" height="225" viewBox="0 0 253 225" fill="none" xmlns="http://www.w3.org/2000/svg">
<path d="M216.134 125.733C216.809 122.227 217.148 118.638 217.125 114.988C217 95.4587 206.559 77.9812 190.048 65.4886C173.538 52.9975 150.879 45.4078 125.985 45.5662C91.0612 45.7883 60.6434 61.2198 45.632 83.9209C37.3167 96.4957 33.7964 111.964 36.8641 126.873C43.8305 160.729 81.895 185.849 126.876 185.563C162.767 185.335 193.91 169.041 208.448 145.294C212.171 139.213 214.804 132.641 216.134 125.733Z" fill="#1A1B1F" stroke="#232427" stroke-width="4"/>
<path d="M215.125 115.001C215.147 118.519 214.82 121.976 214.17 125.355C212.888 132.011 210.349 138.359 206.742 144.25C192.639 167.286 162.217 183.338 126.863 183.563C82.4677 183.846 45.5315 159.072 38.8231 126.47C35.872 112.128 39.2512 97.1962 47.3003 85.024C61.873 62.9863 91.6012 47.7849 125.998 47.5661C174.982 47.2545 214.886 77.4459 215.125 115.001Z" fill="#1A1B1F"/>
<path d="M59.2528 160.144C49.44 151.451 42.4635 140.818 39.4291 129.082C45.6806 127.524 53.6053 132.689 57.9292 141.509C61.2447 148.272 61.5651 155.392 59.2528 160.144Z" fill="#33D2D2"/>
<path d="M210.843 136.278C209.691 139.014 208.318 141.676 206.742 144.25C200.904 153.786 192.27 162.125 181.646 168.64C177.752 163.466 176.073 155.609 177.713 147.396C180.315 134.36 190.294 125.363 200 127.301C204.714 128.242 208.497 131.59 210.843 136.278Z" fill="#33D2D2"/>
<path d="M214.125 115.007C214.147 118.459 213.826 121.851 213.188 125.166C211.931 131.696 209.438 137.932 205.889 143.728C192.004 166.408 161.943 182.34 126.857 182.563C82.7541 182.844 46.382 158.244 39.8026 126.269C36.9098 112.21 40.2185 97.5465 48.1344 85.5756C62.4878 63.8696 91.8713 48.7832 126.005 48.5661C150.296 48.4116 172.299 55.8217 188.238 67.881C204.175 79.9395 214.008 96.6055 214.125 115.007Z" stroke="#F3F3F3" stroke-width="2"/>
<path d="M45.632 83.9209L44.1207 86.2064L46.7582 86.9491L47.3003 85.024C46.7582 86.9491 46.7589 86.9494 46.76 86.9497L46.7635 86.9506L46.7755 86.954L46.8196 86.9663C46.8577 86.9768 46.9135 86.9922 46.9866 87.0121C47.1328 87.0519 47.3483 87.11 47.6309 87.1843C48.1961 87.333 49.0296 87.5468 50.1136 87.8105C52.2815 88.3378 55.4516 89.0645 59.4808 89.8678C67.538 91.4742 79.0364 93.3881 92.8285 94.6249C119.545 97.0208 154.954 96.8841 190.651 86.9867C187.194 101.88 190.482 116.022 194.733 126.583C197.029 132.286 199.623 136.991 201.646 140.274C202.658 141.916 203.529 143.207 204.151 144.091C204.462 144.534 204.711 144.875 204.884 145.109C204.971 145.226 205.039 145.315 205.086 145.378C205.11 145.409 205.129 145.433 205.142 145.45L205.158 145.47L205.163 145.477L205.164 145.479C205.165 145.48 205.165 145.48 206.742 144.25L205.165 145.48L206.941 147.756L208.448 145.294C212.171 139.213 214.804 132.641 216.134 125.733C216.809 122.227 217.148 118.638 217.125 114.988C217 95.4587 206.559 77.9812 190.048 65.4886C173.538 52.9975 150.879 45.4078 125.985 45.5662C91.0612 45.7883 60.6434 61.2198 45.632 83.9209Z" fill="#F3F3F3" stroke="#232427" stroke-width="4"/>
<path d="M78.3935 109.87C78.3935 109.87 86.7207 102.407 92.8394 104.018C96.7744 105.054 99.3931 109.737 99.3931 109.737" stroke="#F3F3F3" stroke-width="2"/>
<path d="M155.392 109.38C155.392 109.38 144.578 102.039 136.735 103.739C131.691 104.832 128.393 109.552 128.393 109.552" stroke="#F3F3F3" stroke-width="2"/>
<path d="M117.941 138.593C98.4635 141.756 123.679 147.557 124.664 142.437" stroke="#F3F3F3" stroke-width="2"/>
<path d="M68.1069 143.436C68.1069 143.436 83.2402 164.34 119.749 165.608C156.258 166.876 169.675 153.79 169.675 153.79M68.1069 143.436L64.626 146.459M68.1069 143.436L72.0877 140.411M169.675 153.79L166.656 150.81M169.675 153.79L172.691 156.271" stroke="#F3F3F3" stroke-width="2"/>
<path d="M94.4855 124.268C94.5067 127.604 93.8745 130.579 92.8801 132.685C91.8516 134.863 90.6112 135.793 89.5587 135.8C88.5063 135.806 87.2542 134.892 86.198 132.727C85.1769 130.634 84.5069 127.667 84.4857 124.332C84.4645 120.996 85.0966 118.021 86.0911 115.915C87.1196 113.737 88.36 112.807 89.4124 112.8C90.4649 112.793 91.717 113.708 92.7732 115.873C93.7943 117.966 94.4643 120.932 94.4855 124.268Z" fill="#F3F3F3" stroke="#F3F3F3" stroke-width="2"/>
<path d="M147.484 123.931C147.506 127.267 146.873 130.242 145.879 132.347C144.85 134.526 143.61 135.456 142.558 135.463C141.505 135.469 140.253 134.555 139.197 132.39C138.176 130.297 137.506 127.33 137.485 123.995C137.463 120.659 138.096 117.684 139.09 115.578C140.119 113.4 141.359 112.47 142.411 112.463C143.464 112.456 144.716 113.371 145.772 115.536C146.793 117.629 147.463 120.595 147.484 123.931Z" fill="#F3F3F3" stroke="#F3F3F3" stroke-width="2"/>
<path d="M194.003 151.545C192.5 150.271 191.341 148.776 190.736 147.425C190.435 146.754 190.24 146.05 190.265 145.388C190.29 144.706 190.56 144.012 191.225 143.576C191.6 143.312 192.018 143.301 192.285 143.325C192.58 143.352 192.877 143.438 193.145 143.533C193.681 143.725 194.311 144.037 194.923 144.349C195.049 144.414 195.175 144.478 195.3 144.542C196.474 145.144 197.597 145.72 198.461 145.914C199.147 146.068 199.726 146.142 200.298 146.214C200.646 146.258 200.991 146.302 201.355 146.364C202.135 146.495 203.227 146.739 203.759 147.711C204.341 148.773 204.241 149.944 203.978 150.851C203.714 151.765 203.24 152.579 202.826 153.066C201.834 154.236 200.206 154.364 198.726 154.037C197.196 153.699 195.515 152.827 194.003 151.545Z" fill="#F3F3F3" stroke="#1A1B1F" stroke-width="2"/>
<path d="M186.091 179.107C184.2 178.489 182.563 177.479 181.512 176.356C180.989 175.797 180.567 175.163 180.37 174.49C180.169 173.803 180.201 173.051 180.629 172.382C180.855 172.001 181.208 171.802 181.486 171.697C181.777 171.586 182.095 171.534 182.388 171.507C182.974 171.453 183.689 171.48 184.38 171.516C184.533 171.524 184.685 171.532 184.837 171.54C185.405 171.571 185.97 171.602 186.52 171.608C187.22 171.615 187.819 171.58 188.276 171.475C188.806 171.353 189.309 171.198 189.796 171.037C189.927 170.994 190.06 170.949 190.193 170.905C190.537 170.789 190.882 170.673 191.195 170.582C191.629 170.456 192.108 170.344 192.573 170.343C193.064 170.343 193.598 170.47 194.049 170.873C194.979 171.707 195.268 172.948 195.326 173.959C195.384 174.996 195.214 176.022 194.999 176.682C194.499 178.21 193.081 179.105 191.512 179.471C189.922 179.843 187.997 179.73 186.091 179.107Z" fill="#F3F3F3" stroke="#1A1B1F" stroke-width="2"/>
<path d="M184.242 189.538C182.567 188.811 181.128 187.807 180.215 186.783C179.764 186.276 179.388 185.706 179.221 185.109C179.047 184.491 179.089 183.775 179.586 183.189C179.869 182.835 180.263 182.716 180.507 182.67C180.781 182.617 181.072 182.617 181.334 182.633C181.862 182.665 182.504 182.777 183.127 182.894C183.255 182.918 183.383 182.942 183.51 182.966C184.71 183.192 185.848 183.407 186.652 183.359C187.295 183.32 187.817 183.24 188.336 183.16C188.654 183.111 188.971 183.062 189.313 183.023C190.036 182.941 191.083 182.875 191.837 183.598C192.659 184.386 192.903 185.448 192.924 186.319C192.946 187.192 192.752 188.033 192.517 188.576C191.941 189.904 190.489 190.424 189.102 190.512C187.654 190.604 185.93 190.269 184.242 189.538Z" fill="#F3F3F3" stroke="#1A1B1F" stroke-width="2"/>
<path d="M187.117 163.693C185.077 162.624 183.364 161.249 182.313 159.925C181.792 159.27 181.382 158.562 181.224 157.859C181.06 157.134 181.157 156.323 181.778 155.71C182.114 155.354 182.557 155.264 182.836 155.238C183.153 155.208 183.494 155.238 183.814 155.285C184.459 155.381 185.247 155.588 186.031 155.803C186.193 155.847 186.355 155.892 186.518 155.937C188.01 156.35 189.478 156.756 190.54 156.789C191.367 156.815 192.062 156.774 192.737 156.734C193.141 156.71 193.538 156.687 193.952 156.678C194.889 156.659 196.071 156.712 196.864 157.569C197.776 158.554 198.009 159.81 197.975 160.863C197.942 161.912 197.645 162.9 197.32 163.52C196.545 164.998 194.776 165.457 193.065 165.409C191.281 165.359 189.168 164.768 187.117 163.693Z" fill="#F3F3F3" stroke="#1A1B1F" stroke-width="2"/>
<path d="M223.551 164.195C223.412 165.384 223.033 166.43 222.382 167.306C221.73 168.182 220.846 168.836 219.776 169.304C218.762 169.747 217.816 169.747 216.951 169.385C216.142 169.046 215.49 168.425 214.944 167.809C214.617 167.439 214.267 166.995 213.93 166.569C213.728 166.313 213.531 166.063 213.347 165.84C212.815 165.194 212.289 164.631 211.708 164.215C210.567 163.398 209.203 162.629 207.848 161.866C207.191 161.496 206.535 161.127 205.91 160.754C204.992 160.209 204.124 159.644 203.503 159.075C203.192 158.79 202.898 158.462 202.698 158.092C202.492 157.711 202.362 157.235 202.478 156.717C202.866 154.992 203.451 153.735 204.354 152.762C205.246 151.801 206.37 151.205 207.654 150.664C208.162 150.45 208.683 150.387 209.198 150.488C209.7 150.586 210.131 150.828 210.494 151.12C211.194 151.68 211.782 152.54 212.301 153.379C212.531 153.749 212.745 154.11 212.957 154.47C213.269 154.997 213.578 155.52 213.931 156.061C214.504 156.937 215.092 157.697 215.743 158.243C216.777 159.11 218.177 159.79 219.562 160.462C219.831 160.593 220.099 160.723 220.363 160.854C221.134 161.236 221.907 161.644 222.478 162.096C223.016 162.521 223.665 163.217 223.551 164.195Z" fill="#F3F3F3" stroke="#1A1B1F" stroke-width="2"/>
<path d="M221.451 171.343C221.694 173.726 221.194 176.642 218.428 177.697C216.441 178.455 214.74 177.679 213.301 176.768C212.866 176.492 212.399 176.167 211.944 175.849C211.671 175.658 211.401 175.471 211.145 175.298C210.424 174.811 209.703 174.372 208.939 174.046C208.474 173.848 207.975 173.64 207.457 173.423C205.616 172.652 203.52 171.775 201.761 170.89C200.634 170.323 199.591 169.726 198.816 169.12C198.429 168.817 198.073 168.485 197.807 168.122C197.544 167.763 197.317 167.302 197.319 166.766C197.327 164.822 197.756 163.407 198.573 162.349C199.378 161.306 200.468 160.735 201.516 160.293C202.645 159.817 203.696 160.082 204.582 160.623C205.425 161.137 206.21 161.951 206.935 162.763C207.189 163.048 207.437 163.333 207.683 163.616C208.178 164.186 208.668 164.751 209.2 165.298C209.983 166.103 210.769 166.775 211.596 167.204C213.077 167.972 215.064 168.45 216.903 168.891C217.025 168.921 217.146 168.95 217.266 168.979C218.195 169.203 219.101 169.43 219.786 169.694C220.127 169.825 220.477 169.989 220.765 170.208C221.047 170.422 221.395 170.79 221.451 171.343Z" fill="#F3F3F3" stroke="#1A1B1F" stroke-width="2"/>
<path d="M217.995 181.307C218.825 182.385 219.13 183.589 218.839 184.747C218.553 185.88 217.738 186.799 216.666 187.432C214.891 188.478 213.158 187.941 211.693 187.259C211.249 187.052 210.766 186.799 210.297 186.554C210.016 186.408 209.74 186.263 209.48 186.133C208.741 185.762 208.015 185.439 207.268 185.233C206.81 185.106 206.318 184.974 205.807 184.836C203.99 184.347 201.917 183.789 200.156 183.176C199.028 182.783 197.969 182.348 197.157 181.865C196.751 181.623 196.37 181.348 196.068 181.03C195.768 180.715 195.495 180.302 195.419 179.79C195.139 177.905 195.324 176.473 195.924 175.327C196.519 174.191 197.452 173.474 198.362 172.891C199.375 172.244 200.428 172.363 201.342 172.77C202.207 173.156 203.058 173.842 203.848 174.528C204.126 174.769 204.397 175.012 204.667 175.253C205.209 175.736 205.745 176.215 206.317 176.671C207.16 177.344 207.981 177.881 208.798 178.178C209.957 178.598 211.042 178.712 212.186 178.833C212.606 178.877 213.033 178.922 213.475 178.983C215.066 179.204 216.717 179.649 217.995 181.307Z" fill="#F3F3F3" stroke="#1A1B1F" stroke-width="2"/>
<path d="M214.008 191.504C214.796 192.414 215.101 193.488 214.781 194.542C214.477 195.544 213.67 196.32 212.684 196.846C211.049 197.718 209.477 197.318 208.124 196.781C207.717 196.619 207.273 196.42 206.844 196.228C206.588 196.113 206.337 196 206.101 195.899C205.429 195.61 204.768 195.36 204.084 195.204C203.664 195.109 203.214 195.009 202.745 194.905C201.079 194.537 199.177 194.116 197.564 193.645C196.532 193.344 195.559 193.006 194.813 192.622C194.44 192.431 194.081 192.206 193.793 191.939C193.51 191.676 193.216 191.296 193.141 190.791C192.904 189.188 193.155 187.693 193.809 186.567C194.468 185.433 195.581 184.629 196.961 184.673C197.783 184.7 198.541 184.986 199.227 185.35C199.91 185.712 200.592 186.189 201.249 186.655C201.282 186.678 201.315 186.701 201.347 186.725C202.672 187.664 203.981 188.591 205.532 189.064C206.591 189.387 207.59 189.462 208.642 189.542C209.028 189.571 209.422 189.601 209.828 189.644C211.268 189.795 212.815 190.125 214.008 191.504Z" fill="#F3F3F3" stroke="#1A1B1F" stroke-width="2"/>
</svg>
