<svg width="70" height="70" viewBox="0 0 70 70" fill="none" xmlns="http://www.w3.org/2000/svg">
<path fill-rule="evenodd" clip-rule="evenodd" d="M29.7193 17.6899C21.017 15.253 14.1562 17.7419 13.1937 24.4856C12.813 27.1529 13.4003 30.1683 14.7513 33.2464C10.821 37.8879 9.84414 42.8339 12.8105 46.5628C15.4943 49.9366 20.8685 51.6385 27.2675 51.623C28.6295 53.5414 30.2866 55.0089 32.182 55.8483C35.2829 57.2217 38.502 56.6838 41.334 54.6767C49.1245 56.2661 55.0784 53.6702 55.9701 47.4228C56.2394 45.5355 56.0242 43.4739 55.3967 41.3392C61.5141 35.9806 63.65 29.7357 60.0826 25.2512C57.5151 22.0236 52.4854 20.3262 46.4517 20.1986C44.9687 17.7309 43.0556 15.8512 40.8072 14.8554C36.9736 13.1575 32.9594 14.3808 29.7193 17.6899Z" fill="#F3F3F3"/>
</svg>
