<svg width="70" height="70" viewBox="0 0 70 70" fill="none" xmlns="http://www.w3.org/2000/svg">
<mask id="path-1-inside-1" fill="white">
<path fill-rule="evenodd" clip-rule="evenodd" d="M29.7193 17.6899C21.017 15.253 14.1562 17.7419 13.1937 24.4856C12.813 27.1529 13.4003 30.1683 14.7513 33.2464C10.821 37.8879 9.84414 42.8339 12.8105 46.5628C15.4943 49.9366 20.8685 51.6385 27.2675 51.623C28.6295 53.5414 30.2866 55.0089 32.182 55.8483C35.2829 57.2217 38.502 56.6838 41.334 54.6767C49.1245 56.2661 55.0784 53.6702 55.9701 47.4228C56.2394 45.5355 56.0242 43.4739 55.3967 41.3392C61.5141 35.9806 63.65 29.7357 60.0826 25.2512C57.5151 22.0236 52.4854 20.3262 46.4517 20.1986C44.9687 17.7309 43.0556 15.8512 40.8072 14.8554C36.9736 13.1575 32.9594 14.3808 29.7193 17.6899Z"/>
</mask>
<path fill-rule="evenodd" clip-rule="evenodd" d="M29.7193 17.6899C21.017 15.253 14.1562 17.7419 13.1937 24.4856C12.813 27.1529 13.4003 30.1683 14.7513 33.2464C10.821 37.8879 9.84414 42.8339 12.8105 46.5628C15.4943 49.9366 20.8685 51.6385 27.2675 51.623C28.6295 53.5414 30.2866 55.0089 32.182 55.8483C35.2829 57.2217 38.502 56.6838 41.334 54.6767C49.1245 56.2661 55.0784 53.6702 55.9701 47.4228C56.2394 45.5355 56.0242 43.4739 55.3967 41.3392C61.5141 35.9806 63.65 29.7357 60.0826 25.2512C57.5151 22.0236 52.4854 20.3262 46.4517 20.1986C44.9687 17.7309 43.0556 15.8512 40.8072 14.8554C36.9736 13.1575 32.9594 14.3808 29.7193 17.6899Z" fill="#1A1B1F"/>
<path d="M13.1937 24.4856L12.2038 24.3443L13.1937 24.4856ZM29.7193 17.6899L29.4496 18.6528L30.0196 18.8125L30.4338 18.3895L29.7193 17.6899ZM14.7513 33.2464L15.5145 33.8926L15.9179 33.4161L15.667 32.8445L14.7513 33.2464ZM12.8105 46.5628L13.593 45.9402L12.8105 46.5628ZM27.2675 51.623L28.0829 51.0441L27.783 50.6218L27.2651 50.623L27.2675 51.623ZM32.182 55.8483L32.5869 54.934L32.5869 54.934L32.182 55.8483ZM41.334 54.6767L41.5339 53.6969L41.1093 53.6103L40.7558 53.8608L41.334 54.6767ZM55.9701 47.4228L56.96 47.5641L56.96 47.5641L55.9701 47.4228ZM55.3967 41.3392L54.7378 40.587L54.257 41.0081L54.4373 41.6212L55.3967 41.3392ZM60.0826 25.2512L60.8651 24.6286L60.8651 24.6286L60.0826 25.2512ZM46.4517 20.1986L45.5946 20.7137L45.8789 21.1867L46.4306 21.1984L46.4517 20.1986ZM40.8072 14.8554L40.4022 15.7697L40.4022 15.7697L40.8072 14.8554ZM14.1837 24.6269C14.6127 21.6211 16.3227 19.6068 18.9231 18.5745C21.5773 17.5207 25.2294 17.471 29.4496 18.6528L29.9889 16.7269C25.5069 15.4718 21.3774 15.4482 18.1851 16.7156C14.9389 18.0044 12.7373 20.6065 12.2038 24.3443L14.1837 24.6269ZM15.667 32.8445C14.3643 29.8765 13.8373 27.0537 14.1837 24.6269L12.2038 24.3443C11.7888 27.252 12.4363 30.4601 13.8356 33.6483L15.667 32.8445ZM13.9882 32.6001C9.9224 37.4017 8.62474 42.9073 12.0279 47.1853L13.593 45.9402C11.0635 42.7605 11.7196 38.3741 15.5145 33.8926L13.9882 32.6001ZM12.0279 47.1853C14.9983 50.9194 20.7638 52.6387 27.2699 52.623L27.2651 50.623C20.9731 50.6382 15.9902 48.9537 13.593 45.9402L12.0279 47.1853ZM26.4521 52.202C27.8941 54.2329 29.6828 55.8351 31.777 56.7627L32.5869 54.934C30.8905 54.1826 29.3649 52.8498 28.0829 51.0441L26.4521 52.202ZM31.777 56.7627C35.251 58.3013 38.8412 57.6691 41.9122 55.4926L40.7558 53.8608C38.1628 55.6985 35.3148 56.1422 32.5869 54.934L31.777 56.7627ZM54.9801 47.2815C54.5815 50.0742 53.0797 51.9995 50.8076 53.0865C48.4912 54.1946 45.2933 54.4639 41.5339 53.6969L41.1341 55.6565C45.1653 56.4789 48.8395 56.245 51.6707 54.8906C54.546 53.5151 56.467 51.0188 56.96 47.5641L54.9801 47.2815ZM54.4373 41.6212C55.0344 43.6525 55.2248 45.5671 54.9801 47.2815L56.96 47.5641C57.2541 45.504 57.014 43.2954 56.3561 41.0572L54.4373 41.6212ZM56.0556 42.0914C59.2032 39.3343 61.4038 36.2847 62.3278 33.2596C63.2628 30.1985 62.8818 27.1637 60.8651 24.6286L59.3 25.8737C60.8507 27.8232 61.1855 30.1531 60.4151 32.6753C59.6337 35.2334 57.7077 37.9855 54.7378 40.587L56.0556 42.0914ZM60.8651 24.6286C58.0217 21.0542 52.618 19.3288 46.4729 19.1988L46.4306 21.1984C52.3528 21.3236 57.0085 22.9931 59.3 25.8737L60.8651 24.6286ZM47.3089 19.6835C45.75 17.0896 43.6961 15.0412 41.2121 13.9411L40.4022 15.7697C42.4151 16.6612 44.1875 18.3722 45.5946 20.7137L47.3089 19.6835ZM41.2121 13.9411C36.8946 12.0289 32.4496 13.4721 29.0048 16.9903L30.4338 18.3895C33.4692 15.2895 37.0525 14.2862 40.4022 15.7697L41.2121 13.9411Z" fill="#F3F3F3" mask="url(#path-1-inside-1)"/>
</svg>
