<svg width="22" height="18" viewBox="0 0 22 18" fill="none" xmlns="http://www.w3.org/2000/svg">
<path fill-rule="evenodd" clip-rule="evenodd" d="M7.13334 17.3623C14.9917 17.3623 19.2917 10.8695 19.2917 5.24851C19.2917 5.06584 19.2917 4.88318 19.2833 4.70052C20.1167 4.10272 20.8417 3.34716 21.4167 2.49197C20.65 2.83239 19.825 3.05656 18.9583 3.1645C19.8417 2.64142 20.5167 1.80284 20.8417 0.806504C20.0167 1.29637 19.1 1.64509 18.125 1.83605C17.3417 1.00577 16.2333 0.490997 15.0083 0.490997C12.65 0.490997 10.7333 2.40064 10.7333 4.75034C10.7333 5.08245 10.775 5.40626 10.8417 5.72177C7.29167 5.54741 4.14167 3.84533 2.03334 1.27146C1.66667 1.90247 1.45834 2.63312 1.45834 3.41359C1.45834 4.89149 2.21667 6.19503 3.35834 6.95888C2.65834 6.93398 2.00001 6.74301 1.42501 6.42751C1.42501 6.44411 1.42501 6.46072 1.42501 6.48562C1.42501 8.54472 2.90001 10.2717 4.85001 10.6619C4.49167 10.7616 4.11667 10.8114 3.72501 10.8114C3.45001 10.8114 3.18334 10.7865 2.92501 10.7367C3.46667 12.4304 5.05001 13.6593 6.91667 13.6925C5.45001 14.8382 3.60834 15.5191 1.60834 15.5191C1.26667 15.5191 0.925008 15.5025 0.591675 15.461C2.47501 16.6566 4.72501 17.3623 7.13334 17.3623Z" fill="#33D2D2"/>
</svg>
