<svg width="343" height="285" viewBox="0 0 343 285" fill="none" xmlns="http://www.w3.org/2000/svg">
<path d="M37.5416 212.831C41.9337 238.329 62.274 258.919 90.0636 262.807C110.279 265.635 130.095 259.016 144.698 246.361C158.27 251.422 174.167 252.977 190.376 249.978C207.291 246.849 221.79 239.27 232.27 229.153C235.874 230.791 239.682 232.209 243.676 233.375C281.555 244.439 321.792 228.736 333.549 198.302C338.914 184.412 337.42 169.854 330.609 157.08C340.051 143.812 343.992 129.994 341.05 116.661C337.581 100.937 325.007 87.9953 306.134 78.5944C308.449 71.8598 308.996 64.6568 307.404 57.4405C301.871 32.3599 272.596 16.6145 242.018 22.2723C220.234 26.3028 203.664 40.1083 197.936 56.7837C186.75 45.8473 168.666 40.3888 150.043 43.8345C133.688 46.8606 120.627 56.068 113.846 67.7864C90.8473 55.1901 62.0315 54.6854 40.4042 68.6395C16.4826 84.074 8.7206 112.446 19.1677 137.874C9.81164 151.09 5.91619 164.848 8.84554 178.126C11.918 192.053 22.1335 203.797 37.5416 212.831Z" fill="#F3F3F3"/>
</svg>
