<svg width="20" height="16" viewBox="0 0 20 16" fill="none" xmlns="http://www.w3.org/2000/svg">
<path fill-rule="evenodd" clip-rule="evenodd" d="M17.2116 7.39905H0V8.31922H17.2116C16.7335 8.52759 16.2158 8.77568 15.6838 9.06716C13.5431 10.2401 11.099 12.1561 10.1622 15.0818L11.0511 15.3591C11.8821 12.7638 14.0785 10.9992 16.1362 9.87169C17.1584 9.31164 18.1285 8.91878 18.8432 8.66609C19.2001 8.5399 19.4922 8.44907 19.6937 8.39011C19.7944 8.36064 19.8725 8.33916 19.9246 8.32523C19.9506 8.31827 19.9702 8.31319 19.9829 8.30995L19.9967 8.30646L19.9996 8.30573C19.9996 8.30573 20 8.30563 19.9998 8.30495V7.41331C20 7.41264 20 7.41264 20 7.41264L19.9967 7.41181L19.9829 7.40832C19.9702 7.40507 19.9506 7.4 19.9246 7.39303C19.8725 7.3791 19.7944 7.35762 19.6937 7.32815C19.4922 7.26919 19.2001 7.17837 18.8432 7.05218C18.1285 6.79949 17.1584 6.40662 16.1362 5.84657C14.0785 4.71907 11.8821 2.95443 11.0511 0.359131L10.1622 0.63643C11.099 3.56215 13.5431 5.47818 15.6838 6.6511C16.2158 6.94258 16.7335 7.19067 17.2116 7.39905Z" fill="white" stroke="white" stroke-width="0.5"/>
</svg>
