<svg width="83" height="32" viewBox="0 0 83 32" fill="none" xmlns="http://www.w3.org/2000/svg">
<path fill-rule="evenodd" clip-rule="evenodd" d="M17.5623 20.4444L27.0058 0H18.1178L13.5029 10.8444L8.88799 0H0L9.44349 20.4444V32H17.5623V20.4444ZM54.2178 0H46.6706V11.4872L46.8802 17.641L37.8655 0H29.4797V32H37.0269V20.5128L36.8172 14.359L45.832 32H54.2178V0ZM82.6665 16.8205C82.6665 27.8974 78.7894 32 68.4642 32H57.9284V0H68.4642C78.7894 0 82.6665 4.10256 82.6665 15.1795V16.8205ZM65.9684 25.0257H68.0906C73.6081 25.0257 74.6268 22.1902 74.6268 16.7987V15.2013C74.6268 9.80986 73.6081 6.97437 68.0906 6.97437H65.9684V25.0257Z" fill="#33D2D2"/>
</svg>
